<svg preserveAspectRatio="xMidYMid meet" viewBox="53.76860841423948 35.464 178.46601941747574 140.712" xmlns="http://www.w3.org/2000/svg" version="1.0" style="max-height: 500px" width="178.46601941747574" height="140.712">

<g stroke="none" fill="#000000" transform="translate(0.000000,572.000000) scale(0.100000,-0.100000)">
<path d="M1840 5253 c-116 -42 -131 -45 -213 -44 -49 1 -104 -3 -122 -9 -27&#10;-9 -71 -7 -209 9 -202 24 -186 23 -186 12 0 -4 54 -32 120 -61 l120 -53 -34&#10;-46 c-51 -70 -71 -117 -94 -216 -27 -117 -47 -275 -39 -307 4 -14 18 -36 32&#10;-51 l26 -25 -53 -11 c-29 -5 -101 -20 -161 -31 -257 -51 -407 -132 -407 -222&#10;0 -55 82 -94 144 -69 72 29 222 58 211 41 -3 -4 -21 -11 -41 -15 -20 -3 -65&#10;-15 -99 -26 -72 -22 -90 -46 -58 -81 16 -18 27 -20 133 -15 105 4 120 7 174&#10;36 36 19 73 31 95 30 l36 0 -51 -19 c-75 -26 -94 -38 -94 -60 0 -50 96 -60&#10;260 -26 229 47 445 130 468 180 26 57 -14 93 -135 123 -87 21 -414 22 -550 1&#10;-51 -8 -93 -11 -93 -8 0 10 95 29 204 42 100 11 384 6 419 -7 13 -5 17 -2 17&#10;13 0 11 -7 22 -15 26 -10 3 -15 19 -15 42 0 27 5 37 20 41 11 3 18 9 15 13 -9&#10;14 7 18 130 34 159 21 155 22 155 -13 0 -16 6 -31 15 -35 20 -7 21 -86 1 -86&#10;-9 0 -15 -20 -20 -67 -4 -38 -9 -83 -12 -100 l-6 -33 181 0 c125 0 181 3 181&#10;11 0 6 -16 42 -36 80 -41 78 -141 179 -216 219 l-46 24 38 46 c86 102 109 194&#10;70 274 l-22 46 -31 -48 c-74 -110 -217 -124 -307 -28 -19 20 -40 36 -46 36 -6&#10;0 -14 -22 -18 -50 -12 -91 -93 -166 -191 -177 -57 -7 -143 31 -176 78 -13 19&#10;-34 42 -46 52 -26 21 -30 59 -8 81 8 8 15 22 15 31 0 48 84 159 137 181 46 20&#10;121 17 194 -5 l62 -20 45 40 c25 22 67 49 93 61 26 12 45 26 42 31 -3 5 32 47&#10;78 93 61 61 78 84 64 83 -11 0 -76 -21 -145 -46z m-67 -518 c26 -20 47 -40 47&#10;-45 0 -29 -101 -51 -141 -30 -18 10 -18 12 6 60 14 28 29 50 33 50 4 0 28 -16&#10;55 -35z m37 -124 c-11 -23 -26 -41 -33 -41 -6 0 -32 14 -57 30 l-45 30 50 0&#10;c28 0 61 6 75 13 14 8 26 13 28 11 2 -1 -6 -20 -18 -43z"/>
<path d="M1805 5076 c-53 -23 -105 -103 -105 -161 0 -6 -13 -16 -30 -22 -28&#10;-10 -32 -9 -51 18 -42 59 -143 86 -216 58 -53 -20 -113 -92 -113 -137 0 -11&#10;-7 -25 -15 -32 -22 -18 -19 -57 4 -65 11 -3 23 -15 26 -25 9 -29 70 -78 114&#10;-91 23 -7 58 -9 86 -5 89 14 165 116 151 205 -5 30 -2 40 10 45 29 11 40 6 57&#10;-28 48 -102 191 -128 277 -50 42 38 55 69 65 156 6 54 5 59 -17 67 -13 5 -32&#10;19 -43 31 -11 12 -32 28 -47 36 -34 18 -113 17 -153 0z m141 -25 c118 -54 112&#10;-230 -10 -276 -56 -21 -104 -14 -146 22 -77 64 -81 163 -8 230 48 45 100 53&#10;164 24z m-379 -127 c43 -32 63 -73 63 -124 0 -57 -26 -107 -71 -137 -33 -22&#10;-47 -25 -99 -21 -49 4 -66 10 -91 34 -61 57 -75 130 -36 199 46 83 158 107&#10;234 49z"/>
<path d="M1792 4917 c-21 -22 -30 -57 -14 -57 4 0 16 7 26 15 11 8 37 15 58&#10;15 43 0 48 12 16 34 -32 22 -61 20 -86 -7z"/>
<path d="M1470 4840 c-11 -11 -20 -29 -20 -40 0 -20 1 -20 30 -5 16 8 49 17&#10;72 19 24 2 45 5 48 5 3 1 -6 11 -19 21 -31 26 -85 26 -111 0z"/>
<path d="M1218 3809 c-26 -15 -23 -58 5 -68 44 -18 84 31 52 63 -19 18 -33 20&#10;-57 5z"/>
<path d="M5040 3739 c0 -55 -2 -60 -17 -53 -140 62 -256 -105 -148 -213 28&#10;-28 40 -33 82 -33 27 0 55 6 62 13 11 10 14 10 18 0 3 -7 20 -13 39 -13 l34 0&#10;0 180 0 180 -35 0 -35 0 0 -61z m-20 -119 c24 -24 26 -67 4 -98 -18 -27 -69&#10;-30 -96 -5 -23 20 -24 80 -1 105 21 24 68 23 93 -2z"/>
<path d="M624 3766 c-15 -38 -1 -51 59 -54 l57 -3 0 -92 c0 -59 -4 -97 -12&#10;-105 -17 -17 -58 -15 -80 5 -19 17 -20 16 -38 -7 -17 -23 -17 -26 -3 -42 39&#10;-43 135 -43 177 -1 31 30 38 76 34 208 l-3 100 -93 3 c-74 2 -93 0 -98 -12z"/>
<path d="M941 3682 c-37 -20 -71 -73 -71 -110 0 -40 28 -91 62 -112 26 -17 45&#10;-20 92 -17 53 3 62 7 92 40 29 31 34 44 34 86 0 104 -112 165 -209 113z m119&#10;-62 c24 -24 26 -67 4 -98 -18 -27 -69 -30 -96 -5 -23 20 -24 80 -1 105 21 24&#10;68 23 93 -2z"/>
<path d="M1210 3570 l0 -130 35 0 35 0 0 130 0 130 -35 0 -35 0 0 -130z"/>
<path d="M1350 3570 l0 -130 35 0 35 0 0 71 c0 93 18 129 67 129 37 0 53 -36&#10;53 -122 l0 -78 35 0 35 0 0 101 c0 98 -1 101 -29 130 -24 23 -38 29 -73 29&#10;-24 0 -54 -7 -66 -16 -20 -14 -22 -14 -22 0 0 12 -10 16 -35 16 l-35 0 0 -130z"/>
<path d="M1864 3681 c-47 -29 -64 -59 -64 -113 0 -41 5 -54 34 -85 30 -33 39&#10;-37 92 -41 76 -5 122 22 144 86 13 37 13 47 0 84 -20 55 -56 80 -122 85 -40 3&#10;-60 -1 -84 -16z m118 -58 c23 -20 24 -80 1 -105 -23 -26 -78 -24 -97 4 -49 70&#10;34 157 96 101z"/>
<path d="M2132 3594 c3 -102 4 -107 31 -130 33 -28 100 -33 135 -8 20 14 22&#10;14 22 0 0 -12 10 -16 35 -16 l35 0 0 130 0 130 -35 0 -35 0 0 -71 c0 -93 -18&#10;-129 -67 -129 -37 0 -53 36 -53 122 l0 78 -36 0 -36 0 4 -106z"/>
<path d="M2460 3570 l0 -130 35 0 35 0 0 68 c0 85 15 116 58 120 29 3 32 6 32&#10;38 0 39 -13 43 -60 19 -27 -14 -30 -14 -30 0 0 11 -10 15 -35 15 l-35 0 0&#10;-130z"/>
<path d="M2835 3688 c-50 -27 -63 -96 -22 -122 20 -13 34 -17 105 -32 12 -2&#10;22 -11 22 -19 0 -22 -46 -29 -93 -15 -36 11 -42 10 -54 -6 -19 -26 -17 -31 18&#10;-43 72 -25 177 -6 193 34 21 56 -6 91 -86 109 -34 7 -54 17 -56 28 -4 21 35&#10;30 79 18 28 -8 36 -7 47 7 6 9 12 21 12 25 0 25 -126 38 -165 16z"/>
<path d="M3060 3599 c0 -98 1 -101 29 -130 24 -23 38 -29 73 -29 24 0 54 7 66&#10;16 20 14 22 14 22 0 0 -12 10 -16 35 -16 l35 0 0 131 0 130 -37 -3 -38 -3 -3&#10;-80 c-3 -86 -18 -115 -57 -115 -41 0 -55 29 -55 118 l0 82 -35 0 -35 0 0 -101z"/>
<path d="M3390 3525 l0 -175 35 0 35 0 0 56 c0 50 2 55 18 48 9 -4 38 -9 63&#10;-12 41 -3 51 0 82 28 59 51 60 145 3 199 -33 31 -106 40 -141 17 -22 -14 -25&#10;-15 -25 -1 0 11 -10 15 -35 15 l-35 0 0 -175z m182 98 c23 -20 24 -80 1 -105&#10;-22 -24 -68 -23 -94 3 -17 17 -20 29 -15 58 3 20 13 42 23 48 24 18 63 16 85&#10;-4z"/>
<path d="M3760 3678 c-50 -34 -70 -93 -50 -150 23 -64 68 -91 148 -86 41 3 68&#10;10 79 21 16 15 15 18 -1 36 -14 15 -23 18 -37 11 -42 -23 -119 -3 -119 31 0 5&#10;43 9 95 9 l95 0 0 35 c0 26 -9 45 -33 72 -29 31 -41 37 -88 40 -45 4 -60 1&#10;-89 -19z m128 -50 c6 -6 12 -17 12 -24 0 -10 -16 -14 -61 -14 -52 0 -60 2 -57&#10;17 7 37 70 49 106 21z"/>
<path d="M4027 3693 c-4 -3 -7 -62 -7 -130 l0 -123 40 0 40 0 0 79 c0 87 12&#10;111 56 111 21 0 24 5 24 35 0 39 -21 47 -56 20 -25 -19 -34 -19 -34 0 0 15&#10;-50 22 -63 8z"/>
<path d="M4370 3570 l0 -130 35 0 35 0 0 78 c0 85 14 112 58 112 18 0 22 6 22&#10;35 0 40 -19 46 -58 19 -20 -14 -22 -14 -22 0 0 12 -10 16 -35 16 l-35 0 0&#10;-130z"/>
<path d="M4580 3689 c-33 -13 -32 -13 -19 -42 10 -21 15 -24 30 -17 32 18 97&#10;12 109 -9 5 -11 10 -22 10 -24 0 -3 -29 -7 -64 -9 -77 -5 -106 -25 -106 -74 0&#10;-59 89 -97 151 -64 13 7 19 7 19 0 0 -5 16 -10 35 -10 l35 0 0 90 c0 100 -11&#10;135 -51 156 -32 16 -112 18 -149 3z m130 -152 c0 -30 -26 -49 -60 -45 -37 3&#10;-54 33 -28 49 21 14 88 11 88 -4z"/>
<path d="M1735 3324 c-32 -32 8 -81 53 -63 28 11 30 54 3 69 -27 14 -37 13&#10;-56 -6z"/>
<path d="M637 3313 c-4 -3 -7 -84 -7 -180 l0 -173 34 0 c19 0 36 5 38 11 3 9&#10;9 9 25 0 31 -16 91 -14 124 6 67 40 78 149 20 207 -27 27 -38 31 -84 31 -28 0&#10;-60 -4 -69 -9 -16 -7 -18 -2 -18 53 0 60 0 61 -28 61 -16 0 -32 -3 -35 -7z&#10;m182 -179 c24 -31 26 -43 9 -79 -29 -63 -128 -33 -128 39 0 27 41 66 70 66 19&#10;0 36 -9 49 -26z"/>
<path d="M3900 3140 l0 -180 35 0 35 0 0 180 0 180 -35 0 -35 0 0 -180z"/>
<path d="M1530 3250 c0 -23 -4 -30 -20 -30 -16 0 -20 -7 -20 -30 0 -23 4 -30&#10;20 -30 18 0 20 -7 20 -75 0 -67 3 -79 25 -100 18 -19 35 -25 69 -25 49 0 61 9&#10;51 40 -4 14 -15 20 -35 20 -34 0 -40 14 -40 86 l0 54 35 0 c32 0 35 2 35 30 0&#10;28 -3 30 -35 30 -32 0 -35 2 -35 30 0 28 -3 30 -35 30 -32 0 -35 -2 -35 -30z"/>
<path d="M4357 3274 c-4 -4 -7 -17 -7 -30 0 -13 -8 -24 -20 -27 -14 -3 -20&#10;-14 -20 -31 0 -19 5 -26 20 -26 17 0 20 -7 20 -53 0 -65 14 -115 37 -133 21&#10;-15 109 -19 118 -4 11 18 -14 49 -42 52 -27 3 -28 5 -31 71 l-3 67 31 0 c27 0&#10;30 3 30 30 0 27 -3 30 -29 30 -25 0 -30 4 -33 28 -2 22 -9 28 -33 30 -17 2&#10;-34 0 -38 -4z"/>
<path d="M4560 3250 c0 -23 -4 -30 -20 -30 -16 0 -20 -7 -20 -30 0 -23 4 -30&#10;20 -30 18 0 20 -7 20 -75 0 -67 3 -79 25 -100 18 -19 35 -25 69 -25 49 0 61 9&#10;51 39 -4 13 -17 21 -38 23 l-32 3 -3 68 -3 67 36 0 c32 0 35 2 35 30 0 28 -3&#10;30 -35 30 -32 0 -35 2 -35 30 0 28 -3 30 -35 30 -32 0 -35 -2 -35 -30z"/>
<path d="M1000 3198 c-50 -34 -70 -93 -50 -150 23 -64 68 -91 148 -86 41 3 68&#10;10 79 21 16 15 15 18 -1 36 -14 15 -23 18 -37 11 -42 -23 -119 -3 -119 31 0 5&#10;43 9 95 9 l95 0 0 35 c0 26 -9 45 -33 72 -29 31 -41 37 -88 40 -45 4 -60 1&#10;-89 -19z m128 -50 c6 -6 12 -17 12 -24 0 -10 -16 -14 -61 -14 -52 0 -60 2 -57&#10;17 7 37 70 49 106 21z"/>
<path d="M1295 3208 c-32 -17 -45 -39 -45 -75 0 -37 23 -57 80 -68 59 -11 70&#10;-16 70 -30 0 -21 -42 -28 -86 -16 -51 14 -49 15 -62 -13 -10 -22 -8 -25 20&#10;-35 44 -16 124 -13 158 4 32 17 46 51 36 89 -7 27 -19 33 -91 50 -31 7 -51 17&#10;-53 28 -4 21 35 30 79 18 28 -8 36 -7 47 7 6 9 12 21 12 25 0 25 -126 38 -165&#10;16z"/>
<path d="M1730 3090 l0 -130 35 0 35 0 0 130 0 130 -35 0 -35 0 0 -130z"/>
<path d="M1935 3210 c-98 -41 -106 -189 -11 -234 48 -22 128 -21 157 3 24 19&#10;24 19 5 40 -13 15 -23 18 -30 11 -17 -17 -91 -12 -109 8 -10 10 -17 22 -17 25&#10;0 4 43 7 95 7 l95 0 0 35 c0 43 -23 81 -61 101 -30 15 -92 18 -124 4z m109&#10;-73 l18 -22 -62 -3 c-34 -2 -64 -1 -66 1 -9 9 10 39 30 47 28 11 57 3 80 -23z"/>
<path d="M2205 3208 c-32 -17 -45 -39 -45 -75 0 -37 23 -57 80 -68 59 -11 70&#10;-16 70 -30 0 -21 -42 -28 -86 -16 -51 14 -49 15 -62 -13 -10 -22 -8 -25 20&#10;-35 44 -16 124 -13 158 4 32 17 46 51 36 89 -7 27 -19 33 -91 50 -31 7 -51 17&#10;-53 28 -4 21 35 30 79 18 28 -8 36 -7 47 7 6 9 12 21 12 25 0 25 -126 38 -165&#10;16z"/>
<path d="M2570 3090 l0 -130 35 0 35 0 0 80 c0 67 3 83 20 100 22 22 42 25 71&#10;10 17 -9 19 -22 19 -100 l0 -90 40 0 40 0 0 84 c0 101 -13 142 -51 161 -37 19&#10;-89 19 -117 -1 -20 -14 -22 -14 -22 0 0 12 -10 16 -35 16 l-35 0 0 -130z"/>
<path d="M2940 3198 c-50 -34 -70 -93 -50 -150 23 -64 68 -91 148 -86 41 3 68&#10;10 79 21 16 15 15 18 -1 36 -14 15 -23 18 -37 11 -42 -23 -119 -3 -119 31 0 5&#10;43 9 95 9 l95 0 0 35 c0 26 -9 45 -33 72 -29 31 -41 37 -88 40 -45 4 -60 1&#10;-89 -19z m128 -50 c6 -6 12 -17 12 -24 0 -10 -16 -14 -61 -14 -52 0 -60 2 -57&#10;17 7 37 70 49 106 21z"/>
<path d="M3170 3212 c0 -4 20 -62 44 -128 l44 -119 35 -3 35 -3 28 75 c16 42&#10;31 76 34 76 3 0 16 -33 30 -73 25 -70 27 -72 62 -75 27 -2 37 1 43 15 15 38&#10;85 235 85 239 0 3 -14 4 -31 2 -30 -3 -33 -8 -61 -83 -16 -44 -31 -81 -32 -83&#10;-2 -2 -17 34 -34 80 -28 77 -32 83 -60 86 -28 3 -31 0 -51 -55 -12 -32 -27&#10;-71 -34 -87 l-13 -30 -30 85 c-28 80 -30 84 -61 87 -18 2 -33 -1 -33 -6z"/>
<path d="M3675 3208 c-50 -27 -63 -96 -22 -122 20 -13 34 -17 105 -32 12 -2&#10;22 -11 22 -19 0 -22 -46 -29 -93 -15 -36 11 -42 10 -54 -6 -19 -26 -17 -31 18&#10;-43 72 -25 177 -6 193 34 21 56 -6 91 -86 109 -34 7 -54 17 -56 28 -4 21 35&#10;30 79 18 28 -8 36 -7 47 7 6 9 12 21 12 25 0 25 -126 38 -165 16z"/>
<path d="M4105 3210 c-98 -41 -106 -189 -11 -234 48 -22 128 -21 157 3 24 19&#10;24 19 5 40 -13 15 -23 18 -30 11 -17 -17 -91 -12 -109 8 -10 10 -17 22 -17 25&#10;0 4 43 7 95 7 l95 0 0 35 c0 43 -23 81 -61 101 -30 15 -92 18 -124 4z m109&#10;-73 l18 -22 -62 -3 c-34 -2 -64 -1 -66 1 -9 9 10 39 30 47 28 11 57 3 80 -23z"/>
<path d="M4790 3198 c-50 -34 -70 -93 -50 -150 23 -64 68 -91 148 -86 41 3 68&#10;10 79 21 16 15 15 18 -1 36 -14 15 -23 18 -37 11 -42 -23 -119 -3 -119 31 0 5&#10;43 9 95 9 l95 0 0 35 c0 26 -9 45 -33 72 -29 31 -41 37 -88 40 -45 4 -60 1&#10;-89 -19z m128 -50 c6 -6 12 -17 12 -24 0 -10 -16 -14 -61 -14 -52 0 -60 2 -57&#10;17 7 37 70 49 106 21z"/>
<path d="M5057 3213 c-4 -3 -7 -62 -7 -130 l0 -123 40 0 40 0 0 79 c0 87 12&#10;111 56 111 21 0 24 5 24 35 0 39 -21 47 -56 20 -25 -19 -34 -19 -34 0 0 15&#10;-50 22 -63 8z"/>
<path d="M5360 3095 l0 -25 240 0 240 0 0 25 0 25 -240 0 -240 0 0 -25z"/>
<path d="M930 2655 l0 -175 35 0 35 0 0 80 c0 89 17 120 64 120 45 0 56 -23&#10;56 -116 l0 -84 35 0 35 0 0 84 c0 45 -5 97 -11 115 -19 55 -90 77 -149 46&#10;l-30 -16 0 61 0 60 -35 0 -35 0 0 -175z"/>
<path d="M2840 2655 l0 -175 30 0 30 0 0 70 c0 80 14 118 46 126 61 15 84 -18&#10;84 -123 l0 -73 30 0 30 0 0 99 c0 89 -2 103 -22 126 -30 34 -85 43 -129 21&#10;-17 -9 -34 -16 -36 -16 -1 0 -3 27 -3 60 l0 60 -30 0 -30 0 0 -175z"/>
<path d="M600 2786 c0 -23 4 -25 53 -28 l52 -3 3 -137 3 -138 34 0 34 0 3 138&#10;3 137 53 3 c48 3 52 5 52 28 l0 24 -145 0 -145 0 0 -24z"/>
<path d="M1710 2645 l0 -165 34 0 c34 0 35 1 38 48 l3 47 74 6 c67 5 77 8 102&#10;37 22 25 29 42 29 75 0 87 -47 117 -185 117 l-95 0 0 -165z m168 104 c34 -12&#10;47 -37 38 -75 -8 -29 -41 -44 -97 -44 l-39 0 0 58 c0 32 3 62 7 65 10 10 56 8&#10;91 -4z"/>
<path d="M1315 2725 c-38 -20 -53 -40 -66 -87 -8 -31 -6 -46 9 -81 31 -71 120&#10;-98 199 -61 33 16 34 18 16 35 -15 16 -24 17 -53 8 -42 -13 -83 0 -100 31 -10&#10;20 -8 20 91 20 l102 0 -6 36 c-8 50 -32 83 -72 100 -44 18 -83 18 -120 -1z&#10;m113 -62 l27 -28 -69 -3 c-37 -2 -71 0 -74 3 -11 10 42 55 65 55 13 0 36 -12&#10;51 -27z"/>
<path d="M2103 2725 c-67 -29 -92 -118 -53 -183 35 -57 127 -79 190 -47 34 17&#10;37 27 15 45 -11 9 -22 9 -49 0 -39 -12 -67 -7 -91 16 -28 29 -15 34 80 34 l95&#10;0 0 30 c0 91 -96 145 -187 105z m107 -55 c33 -33 24 -40 -45 -40 -71 0 -85 15&#10;-43 44 31 22 64 20 88 -4z"/>
<path d="M2350 2608 l0 -128 35 0 35 0 0 79 c0 74 2 81 26 100 15 12 33 21 40&#10;21 9 0 14 11 14 30 0 34 -9 36 -50 15 -17 -9 -30 -11 -30 -6 0 5 -16 11 -35&#10;13 l-35 4 0 -128z"/>
<path d="M2620 2729 c-40 -16 -69 -50 -81 -91 -22 -82 44 -158 138 -158 42 0&#10;103 32 103 53 0 18 -47 40 -56 26 -3 -6 -17 -14 -30 -19 -71 -27 -123 69 -68&#10;124 19 20 78 21 94 2 9 -12 17 -13 36 -4 28 13 30 21 7 43 -33 34 -93 44 -143&#10;24z"/>
<path d="M935 2200 c-3 -5 1 -10 9 -10 9 0 16 5 16 10 0 6 -4 10 -9 10 -6 0&#10;-13 -4 -16 -10z"/>
<path d="M610 2150 l0 -50 35 0 c19 0 35 5 35 10 0 6 -11 10 -25 10 -14 0 -25&#10;5 -25 10 0 6 9 10 20 10 11 0 20 5 20 10 0 6 -9 10 -20 10 -11 0 -20 5 -20 10&#10;0 6 11 10 25 10 14 0 25 5 25 10 0 6 -16 10 -35 10 l-35 0 0 -50z"/>
<path d="M980 2150 c0 -27 5 -50 10 -50 6 0 10 23 10 50 0 28 -4 50 -10 50 -5&#10;0 -10 -22 -10 -50z"/>
<path d="M1069 2154 c-11 -26 -17 -50 -13 -53 4 -3 9 0 11 7 3 6 17 12 33 12&#10;16 0 30 -6 33 -12 2 -7 7 -10 11 -7 9 8 -32 99 -45 99 -5 0 -19 -21 -30 -46z&#10;m41 -5 c0 -5 -4 -9 -10 -9 -5 0 -10 7 -10 16 0 8 5 12 10 9 6 -3 10 -10 10&#10;-16z"/>
<path d="M1220 2184 c0 -9 -6 -14 -12 -11 -20 7 -48 -12 -48 -31 0 -26 20 -42&#10;52 -42 27 0 28 2 28 50 0 28 -4 50 -10 50 -5 0 -10 -7 -10 -16z m-2 -47 c2&#10;-12 -3 -17 -17 -17 -12 0 -21 6 -21 13 0 31 32 34 38 4z"/>
<path d="M1320 2184 c0 -10 -6 -14 -14 -11 -23 9 -48 -16 -44 -44 2 -20 9 -24&#10;41 -26 l37 -1 0 49 c0 27 -4 49 -10 49 -5 0 -10 -7 -10 -16z m-5 -45 c0 -7 -8&#10;-15 -17 -17 -18 -3 -25 18 -11 32 10 10 28 1 28 -15z"/>
<path d="M704 2171 c-2 -2 -4 -19 -4 -38 0 -39 17 -45 22 -6 4 39 28 42 28 4&#10;0 -40 16 -40 24 0 7 37 30 34 34 -4 2 -15 8 -27 13 -27 13 0 11 57 -2 65 -12&#10;8 -108 13 -115 6z"/>
<path d="M860 2170 c-12 -8 -11 -10 8 -10 12 0 22 -4 22 -9 0 -5 -10 -11 -22&#10;-13 -36 -5 -28 -32 10 -36 29 -3 32 -1 32 25 0 26 -15 53 -29 53 -4 0 -13 -5&#10;-21 -10z m30 -44 c0 -11 -19 -15 -25 -6 -3 5 1 10 9 10 9 0 16 -2 16 -4z"/>
<path d="M937 2173 c-11 -10 -8 -73 3 -73 6 0 10 18 10 40 0 41 -2 45 -13 33z"/>
<path d="M1360 2140 c0 -22 5 -40 10 -40 6 0 10 11 10 24 0 14 5 28 11 32 8 4&#10;7 9 -2 15 -24 15 -29 10 -29 -31z"/>
<path d="M1428 2169 c-36 -20 -15 -69 29 -69 32 0 29 18 -4 23 -26 4 -26 4 5&#10;6 36 1 44 24 13 41 -23 12 -22 12 -43 -1z m37 -19 c3 -5 -3 -10 -15 -10 -12 0&#10;-18 5 -15 10 3 6 10 10 15 10 5 0 12 -4 15 -10z"/>
<path d="M1514 2166 c-21 -16 -13 -31 21 -39 15 -4 13 -5 -7 -6 -16 0 -28 -5&#10;-28 -11 0 -15 46 -12 59 4 10 12 7 18 -16 30 -27 14 -27 15 -5 16 13 0 20 4&#10;17 10 -8 14 -18 13 -41 -4z"/>
<path d="M1587 2168 c-19 -15 -11 -33 18 -41 18 -4 18 -5 -2 -6 -13 0 -23 -6&#10;-23 -12 0 -14 52 -7 57 8 2 6 -8 19 -24 27 -27 14 -27 15 -5 16 13 0 20 4 17&#10;10 -8 13 -18 13 -38 -2z"/>
<path d="M881 1598 c-1 -56 2 -66 14 -62 11 5 12 11 4 26 -19 36 29 65 60 36&#10;11 -11 13 -10 9 2 -3 10 -17 15 -41 14 -31 -1 -36 2 -40 25 -2 14 -5 -4 -6&#10;-41z"/>
<path d="M1135 1640 c-3 -6 1 -7 9 -4 18 7 21 14 7 14 -6 0 -13 -4 -16 -10z"/>
<path d="M800 1614 c38 -7 39 -32 3 -36 -20 -2 -28 -9 -28 -23 0 -16 7 -20 33&#10;-21 33 -1 33 0 30 40 -3 38 -5 41 -35 44 -33 2 -33 2 -3 -4z m28 -56 c-7 -20&#10;-48 -23 -48 -4 0 11 9 16 26 16 16 0 24 -5 22 -12z"/>
<path d="M1012 1608 c-21 -21 -14 -57 13 -70 20 -9 28 -9 38 2 9 10 9 11 -1 6&#10;-7 -4 -21 -4 -33 -1 -15 5 -19 14 -17 33 3 23 8 27 35 27 17 0 29 3 26 7 -7&#10;12 -48 9 -61 -4z"/>
<path d="M1152 1608 c-26 -26 -7 -79 28 -77 9 0 6 4 -7 9 -16 6 -23 18 -23 35&#10;0 17 7 29 23 35 13 5 16 9 7 9 -9 1 -21 -4 -28 -11z"/>
<path d="M1302 1608 c-21 -21 -14 -57 13 -70 20 -9 28 -9 38 2 9 10 9 11 -1 6&#10;-7 -4 -21 -4 -33 -1 -15 5 -19 14 -17 33 3 23 8 27 35 27 17 0 29 3 26 7 -7&#10;12 -48 9 -61 -4z"/>
<path d="M1402 1608 c-32 -32 4 -87 48 -73 19 6 37 42 26 52 -3 4 -6 -1 -6 -9&#10;0 -23 -26 -41 -50 -33 -16 5 -20 14 -18 33 3 23 8 27 35 27 17 0 29 3 26 7 -7&#10;12 -48 9 -61 -4z"/>
<path d="M1511 1571 l2 -46 6 40 c5 34 10 40 34 43 26 3 27 1 28 -40 l2 -43 6&#10;40 c5 34 10 40 33 43 25 3 27 0 31 -37 l4 -41 -1 42 -1 43 -72 1 -73 1 1 -46z"/>
<path d="M1701 1555 c1 -33 4 -50 6 -37 4 18 9 21 29 16 30 -8 54 11 54 41 0&#10;30 -21 46 -59 43 l-31 -2 1 -61z m77 23 c2 -19 -2 -28 -18 -33 -24 -8 -50 10&#10;-50 35 0 24 10 31 40 28 19 -2 26 -10 28 -30z"/>
<path d="M1850 1614 c40 -7 40 -34 -1 -34 -26 0 -30 -3 -27 -22 2 -18 10 -23&#10;36 -24 33 -1 33 0 30 40 -3 38 -5 41 -35 44 -33 2 -33 2 -3 -4z m28 -56 c-7&#10;-20 -48 -23 -48 -4 0 11 9 16 26 16 16 0 24 -5 22 -12z"/>
<path d="M1931 1571 l2 -46 6 40 c5 34 10 40 33 43 25 3 27 0 31 -40 l4 -43&#10;-1 45 c-1 45 -1 45 -38 46 l-38 1 1 -46z"/>
<path d="M2041 1615 c0 -5 6 -21 14 -35 8 -14 14 -20 14 -15 0 6 -6 21 -14 35&#10;-8 14 -14 21 -14 15z"/>
<path d="M2187 1613 c-4 -3 -7 -13 -7 -22 0 -13 2 -13 13 1 6 9 23 19 37 21&#10;22 4 21 4 -6 6 -17 0 -34 -2 -37 -6z"/>
<path d="M2292 1608 c-32 -32 4 -87 48 -73 19 6 37 42 26 52 -3 4 -6 -1 -6 -9&#10;0 -23 -26 -41 -50 -33 -16 5 -20 14 -18 33 3 23 8 27 35 27 17 0 29 3 26 7 -7&#10;12 -48 9 -61 -4z"/>
<path d="M2401 1571 l2 -46 6 40 c5 34 10 40 31 40 22 0 26 -6 31 -40 l5 -40&#10;5 40 c3 35 7 40 29 40 21 0 26 -6 31 -40 l7 -40 -2 45 -1 45 -72 1 -73 1 1&#10;-46z"/>
<path d="M1206 1595 c4 -8 8 -15 10 -15 2 0 4 7 4 15 0 8 -4 15 -10 15 -5 0&#10;-7 -7 -4 -15z"/>
<path d="M1102 1575 c0 -16 2 -22 5 -12 2 9 2 23 0 30 -3 6 -5 -1 -5 -18z"/>
<path d="M960 1561 c0 -6 -10 -16 -22 -21 -16 -6 -18 -9 -7 -9 19 -1 45 26 35&#10;36 -3 3 -6 1 -6 -6z"/>
<path d="M1207 1556 c-8 -20 31 -32 47 -16 8 10 8 11 -3 5 -9 -5 -19 -2 -26 9&#10;-11 14 -13 14 -18 2z"/>
<path d="M2083 1554 c-7 -7 -13 -20 -13 -28 0 -8 -10 -17 -22 -19 l-23 -4 22&#10;-2 c16 -1 27 8 38 30 18 34 17 44 -2 23z"/>
<path d="M2180 1564 c0 -26 51 -46 64 -25 4 5 -4 7 -15 4 -15 -4 -27 0 -35 12&#10;-8 11 -14 14 -14 9z"/>
<path d="M1127 1519 c12 -12 24 -21 27 -18 2 2 -8 13 -22 23 l-27 19 22 -24z"/>
<path d="M675 1121 c-11 -5 -31 -21 -45 -36 l-25 -27 0 -229 0 -229 33 -32 32&#10;-33 705 0 705 0 32 33 33 32 0 230 0 230 -33 32 -32 33 -693 2 c-380 1 -701&#10;-2 -712 -6z m515 -235 c0 -19 4 -22 23 -19 29 6 57 -20 57 -51 0 -33 -19 -46&#10;-67 -46 l-43 0 0 63 c0 35 3 67 7 70 13 14 23 6 23 -17z m400 15 c0 -14 -18&#10;-23 -30 -16 -6 4 -8 11 -5 16 8 12 35 12 35 0z m50 -15 c0 -19 4 -22 23 -19&#10;34 7 63 -30 51 -65 -8 -24 -15 -27 -57 -30 l-47 -3 0 70 c0 56 3 71 15 71 9 0&#10;15 -9 15 -24z m-622 -5 c3 -10 -1 -12 -18 -8 -24 6 -50 -1 -50 -13 0 -5 14&#10;-11 30 -15 68 -15 55 -79 -15 -73 -21 2 -40 9 -42 15 -3 9 6 12 29 10 44 -3&#10;48 14 6 27 -38 13 -49 43 -22 63 23 17 76 13 82 -6z m54 -48 c2 -26 8 -38 18&#10;-38 10 0 16 12 18 38 2 24 8 37 18 37 10 0 14 -13 14 -50 l0 -50 -38 0 c-48 0&#10;-62 14 -62 62 0 52 28 53 32 1z m286 19 c3 -9 -3 -11 -22 -6 -16 4 -26 2 -26&#10;-5 0 -6 9 -11 19 -11 11 0 23 -5 27 -11 3 -6 14 2 25 20 19 31 49 40 78 22 21&#10;-13 4 -33 -19 -21 -22 12 -46 -11 -36 -36 5 -12 13 -14 37 -9 24 5 30 4 27 -6&#10;-7 -20 -57 -23 -77 -4 -16 14 -19 14 -31 0 -17 -20 -80 -20 -80 0 0 11 8 13&#10;32 8 22 -4 29 -3 24 5 -4 7 -16 12 -27 12 -25 0 -35 25 -18 46 14 17 60 15 67&#10;-4z m192 10 c0 -4 -9 -15 -20 -25 -11 -9 -20 -28 -20 -42 0 -14 -4 -25 -10&#10;-25 -5 0 -10 22 -10 48 0 47 1 49 30 50 17 0 30 -3 30 -6z m38 -45 c2 -37 0&#10;-47 -12 -47 -12 0 -16 12 -16 51 0 66 24 62 28 -4z m223 43 c10 -6 19 -20 19&#10;-30 0 -16 -7 -20 -36 -20 -23 0 -33 -4 -28 -11 3 -6 17 -8 30 -5 17 5 24 2 24&#10;-9 0 -19 -60 -21 -78 -3 -18 18 -15 65 6 77 22 13 39 13 63 1z"/>
<path d="M1200 835 c-16 -19 -5 -47 17 -43 22 4 29 43 9 51 -8 3 -20 -1 -26&#10;-8z"/>
<path d="M1652 841 c-19 -11 -11 -45 11 -49 9 -2 20 4 23 13 9 21 -16 47 -34&#10;36z"/>
<path d="M1765 840 c-3 -5 3 -10 15 -10 12 0 18 5 15 10 -3 6 -10 10 -15 10&#10;-5 0 -12 -4 -15 -10z"/>
</g>
</svg>